<svg xmlns="http://www.w3.org/2000/svg" viewBox="0 0 63 63" width="63" height="63"><defs></defs><g transform="matrix(1,0,0,1,31.5,31.209467328)">
<g>
	<g>
		<path d="M-31.500000000000018,-31.209467328487808 L31.5349998474121,-31.209467328487808 L31.5349998474121,31.82553251892431 L-31.500000000000018,31.82553251892431 L-31.500000000000018,-31.209467328487808 Z" fill="#000000"/>
	</g>
	<g>
		<path d="M23.394973926241974,-16.314056194262818 C23.394973926241974,-16.314056194262818 14.412623640702613,-16.314056194262818 14.412623640702613,-16.314056194262818 C14.412623640702613,-16.314056194262818 4.970401571334538,16.345054424243287 4.970401571334538,16.345054424243287 C4.970401571334538,16.345054424243287 13.949783737330698,16.345054424243287 13.949783737330698,16.345054424243287 C13.949783737330698,16.345054424243287 23.394973926241974,-16.314056194262818 23.394973926241974,-16.314056194262818 Z" fill="#ff0000"/>
	</g>
	<g>
		<path d="M1.5806958739929229,4.558224467442958 C1.5806958739929229,4.558224467442958 4.208644584052667,-4.524258117919292 4.208644584052667,-4.524258117919292 C4.208644584052667,-4.524258117919292 6.0600041975403265,-10.930580210656036 6.0600041975403265,-10.930580210656036 C6.0600041975403265,-10.930580210656036 4.506820345445636,-16.314056194262818 4.506820345445636,-16.314056194262818 C4.506820345445636,-16.314056194262818 -4.475529940093722,-16.314056194262818 -4.475529940093722,-16.314056194262818 C-4.475529940093722,-16.314056194262818 -1.0531876604155883,-4.524258117919292 -1.0531876604155883,-4.524258117919292 C-1.0531876604155883,-4.524258117919292 -10.970116452377859,-4.527225530093675 -10.970116452377859,-4.527225530093675 C-10.970116452377859,-4.527225530093675 -14.379107853062116,-16.314056194262818 -14.379107853062116,-16.314056194262818 C-14.379107853062116,-16.314056194262818 -23.35997407882988,-16.314056194262818 -23.35997407882988,-16.314056194262818 C-23.35997407882988,-16.314056194262818 -13.9177520094618,16.345054424243287 -13.9177520094618,16.345054424243287 C-13.9177520094618,16.345054424243287 -4.935401723922439,16.345054424243287 -4.935401723922439,16.345054424243287 C-4.935401723922439,16.345054424243287 -8.3429090648351,4.5589672046975735 -8.3429090648351,4.5589672046975735 C-8.3429090648351,4.5589672046975735 1.5806958739929229,4.558224467442958 1.5806958739929229,4.558224467442958 Z" fill="#ffffff"/>
	</g>
</g></g></svg>